<svg width="822" height="204" viewBox="0 0 822 204" fill="none" xmlns="http://www.w3.org/2000/svg">
<path d="M771.295 163.625C776.768 154.212 776.768 152.241 776.768 145.674V98.3879C776.768 86.1286 770.419 80.8746 761.225 80.8746C754.438 80.8746 748.747 83.9394 745.463 88.7556V144.579C745.463 151.803 745.463 151.803 750.936 163.625H700.585C706.058 154.212 706.058 152.241 706.058 145.674V33.5886C706.058 24.3942 706.058 18.7023 700.585 8.85111L745.463 0.970123V69.4909C751.811 59.4208 764.29 50.883 779.614 50.883C804.132 50.883 816.173 67.7396 816.173 89.6312V144.579C816.173 151.803 816.173 151.803 821.646 163.625H771.295Z" fill="black"/>
<path d="M650.706 166.909C632.974 166.909 619.62 162.749 609.112 155.306L606.485 117.871C623.561 136.041 641.293 145.893 652.677 145.893C658.369 145.893 661.652 143.266 661.652 138.887C661.652 135.166 659.901 132.977 655.085 130.788L629.69 118.966C615.242 112.18 608.456 102.328 608.456 87.8799C608.456 66.2072 626.626 50.8831 652.239 50.8831C666.25 50.8831 677.633 53.5101 689.455 61.1721V94.2285C678.29 80.6557 661.214 71.0234 650.488 71.0234C644.577 71.0234 641.95 73.4314 641.95 77.3719C641.95 80.2178 643.701 82.8448 648.298 84.8151L673.255 96.4176C687.703 102.985 694.928 113.055 694.928 128.817C694.928 150.49 678.29 166.909 650.706 166.909Z" fill="black"/>
<path d="M539.288 166.909C505.356 166.909 478.43 144.579 478.43 108.677C478.43 72.7747 505.356 50.8831 539.288 50.8831C573.658 50.8831 600.366 72.7747 600.366 108.677C600.366 144.579 573.439 166.909 539.288 166.909ZM519.805 104.955C519.805 129.255 527.248 143.266 540.164 143.266C552.204 143.266 558.991 132.101 558.991 112.399C558.991 88.3177 551.548 74.3071 538.632 74.3071C526.591 74.3071 519.805 85.4718 519.805 104.955Z" fill="black"/>
<path d="M422.799 163.625C428.272 154.212 428.272 152.241 428.272 145.674V98.3879C428.272 86.1286 421.924 80.8746 412.729 80.8746C405.943 80.8746 400.251 83.9394 396.967 88.7556V144.579C396.967 151.803 396.967 151.803 402.44 163.625H352.089C357.562 154.212 357.562 152.241 357.562 145.674V85.034C357.562 75.8395 357.562 70.1477 352.089 60.2965L396.967 52.4155V69.4909C403.316 59.4208 415.794 50.8831 431.118 50.8831C455.637 50.8831 467.677 67.7396 467.677 89.6312V144.579C467.677 151.803 467.677 151.803 473.15 163.625H422.799Z" fill="black"/>
<path d="M227.343 85.034C227.343 75.8395 227.343 70.1477 221.87 60.2965L266.748 52.4155V65.9883C274.191 56.137 284.918 50.8831 297.615 50.8831C324.761 50.8831 345.339 71.899 345.339 106.707C345.339 143.922 321.258 166.909 289.296 166.909C281.196 166.909 273.534 165.376 266.748 162.093V183.984C266.748 191.208 266.748 191.208 273.315 203.03H221.87C227.343 193.835 227.343 191.646 227.343 185.079V85.034ZM266.748 129.693C270.25 138.887 277.256 143.922 285.356 143.922C295.864 143.922 304.183 132.539 304.183 111.961C304.183 91.1637 294.112 79.78 281.196 79.78C275.067 79.78 269.813 82.1881 266.748 86.7853V129.693Z" fill="black"/>
<path d="M192.696 166.909C180.218 166.909 172.337 161.436 168.615 152.022C163.799 159.028 151.978 166.909 138.624 166.909C119.14 166.909 104.911 155.306 104.911 137.574C104.911 120.28 118.483 108.677 144.753 103.861L166.426 99.9203V97.5122C166.426 87.0042 156.356 79.5611 141.688 79.5611C127.459 79.5611 117.17 83.2827 107.975 92.2582C110.165 64.4559 129.648 50.8831 158.983 50.8831C188.318 50.8831 205.831 67.0829 205.831 96.8555V128.817C205.831 135.823 208.896 139.325 215.463 139.325C218.309 139.325 220.717 138.668 223.563 136.698C221.593 155.963 208.896 166.909 192.696 166.909ZM145.191 129.693C145.191 136.917 149.788 141.514 156.794 141.514C161.172 141.514 163.799 140.42 166.426 137.793V113.931L160.077 115.244C149.569 116.777 145.191 123.125 145.191 129.693Z" fill="black"/>
<path d="M58.8048 166.909C34.5051 166.909 20.9323 152.679 20.9323 126.847V79.3422H0.354126L60.3372 20.4537V54.1669H106.529L95.5827 79.3422H60.3372V114.369C60.3372 127.285 68.8749 134.728 81.5721 134.728C90.5476 134.728 97.1151 132.101 102.15 127.942C99.5232 149.177 85.5126 166.909 58.8048 166.909Z" fill="black"/>
</svg>
